<?xml version="1.0" encoding="utf-8"?>
<!-- Generator: Adobe Illustrator 23.1.1, SVG Export Plug-In . SVG Version: 6.00 Build 0)  -->
<svg version="1.1" id="bfc717e4-0ce1-40c2-86b9-35a542da0074"
	 xmlns="http://www.w3.org/2000/svg" xmlns:xlink="http://www.w3.org/1999/xlink" x="0px" y="0px" viewBox="0 0 998.3 697.6"
	 style="enable-background:new 0 0 998.3 697.6;" xml:space="preserve">
<style type="text/css">
	.st0{fill:#F2F2F2;}
	.st1{fill:#3F3D56;}
	.st2{fill:#9DB8FF;}
	.st3{opacity:0.1;enable-background:new    ;}
	.st4{fill:#1510F9;}
	.st5{fill:#FFFFFF;}
	.st6{fill:#2F2E41;}
	.st7{fill:#FFB9B9;}
	.st8{fill:#D0CDE1;}
</style>
<title>file_manager</title>
<rect x="149.7" y="24" class="st0" width="103" height="120"/>
<rect x="427.7" y="94" class="st0" width="103" height="120"/>
<rect x="706.7" y="24" class="st0" width="103" height="120"/>
<rect x="228.6" y="430.3" class="st1" width="271" height="67.6"/>
<polygon class="st1" points="784.2,696.3 545.4,696.3 612.5,580.2 664.8,489.5 "/>
<rect x="136.9" y="515.8" class="st1" width="396.8" height="180.5"/>
<circle class="st2" cx="664.4" cy="442.3" r="47.1"/>
<rect x="1.6" y="695.6" class="st1" width="860.8" height="2"/>
<polygon class="st3" points="499.6,434.9 499.6,497.9 435.8,497.9 474.8,430.3 497,430.3 "/>
<polygon class="st3" points="533.8,515.8 533.8,696.3 321.2,696.3 321.4,696 425.4,515.8 "/>
<polygon class="st3" points="679.5,696.3 545.4,696.3 612.5,580.2 615.5,585.4 "/>
<polygon class="st4" points="664.6,696.5 335.2,696.5 335.4,696 443.5,508.9 499.9,411.1 600.5,585.4 664.5,696.3 "/>
<circle class="st1" cx="499.4" cy="393.3" r="20.3"/>
<path class="st1" d="M443.4,399.8c-41.1,0-81.9-6.8-120.7-20.3c-52.1-18-94.7-42.8-126.7-73.8c-60.6-58.6-110.3-67.4-141.3-64.5
	c-33.6,3.1-53.1,20.3-53.3,20.5L0,260.3c0.2-0.2,20.1-17.8,54.3-21c20-1.9,41,1.4,62.3,9.8c26.6,10.5,53.7,29.1,80.7,55.2
	c31.8,30.8,74.2,55.4,126,73.3c95,32.9,202.2,24.9,293.9-21.8c30.4-15.5,60.4-26,89.2-31.4c36.4-6.8,70.8-5.2,102.5,4.7
	c69.5,21.6,117.1,20.5,144.7,15.7c29.8-5.1,43.3-15.5,43.4-15.6l1.2,1.6c-0.6,0.4-14,10.7-44.3,15.9c-27.8,4.8-75.7,6-145.6-15.8
	c-70.8-22-142.5,2.3-190.2,26.6c-45.3,23.2-94.8,37.2-145.6,41.1C462.8,399.4,453.1,399.8,443.4,399.8z"/>
<path class="st1" d="M217.6,323.3l-1.4-1.4c6.6-7.5,11.6-16.2,14.7-25.7c4.9-14.6,7.2-37.8-9.1-64.8c-16.7-27.6-17.4-50.1-15.1-64.1
	c2.5-15.2,8.9-23.7,9.2-24.1l1.6,1.2c-0.1,0.1-6.4,8.6-8.8,23.3c-2.2,13.6-1.4,35.5,14.9,62.6c16.7,27.7,14.2,51.5,9.2,66.5
	C227.3,313.3,218,322.9,217.6,323.3z"/>
<path class="st1" d="M292.7,145h-144V1h144V145z M150.7,143h140V3h-140V143z"/>
<path class="st1" d="M496.6,394.3l-1.4-1.4c6.6-7.5,11.6-16.2,14.7-25.7c4.9-14.6,7.2-37.8-9.1-64.8c-16.7-27.6-17.4-50.1-15.1-64.1
	c2.5-15.2,8.9-23.7,9.2-24.1l1.6,1.2c-0.1,0.1-6.4,8.6-8.8,23.3c-2.2,13.6-1.4,35.5,14.9,62.6c16.7,27.7,14.2,51.5,9.2,66.5
	C506.3,384.3,497,393.9,496.6,394.3z"/>
<path class="st1" d="M571.7,216h-144V72h144V216z M429.7,214h140V74h-140V214z"/>
<path class="st1" d="M774.6,322.3l-1.4-1.4c6.6-7.5,11.6-16.2,14.7-25.7c4.9-14.6,7.2-37.8-9.1-64.8c-16.7-27.6-17.4-50.1-15.1-64.1
	c2.5-15.2,8.9-23.7,9.2-24.1l1.6,1.2c-0.1,0.1-6.4,8.6-8.8,23.3c-2.2,13.6-1.4,35.5,14.9,62.6c16.7,27.7,14.2,51.5,9.2,66.5
	C784.3,312.3,775,321.9,774.6,322.3z"/>
<path class="st1" d="M849.7,144h-144V0h144V144z M707.7,142h140V2h-140V142z"/>
<rect x="178.7" y="43" class="st1" width="88" height="2"/>
<rect x="178.7" y="65" class="st1" width="88" height="2"/>
<rect x="178.7" y="87" class="st1" width="88" height="2"/>
<rect x="455.7" y="111" class="st1" width="88" height="2"/>
<rect x="455.7" y="133" class="st1" width="88" height="2"/>
<rect x="455.7" y="155" class="st1" width="88" height="2"/>
<rect x="733.7" y="43" class="st1" width="88" height="2"/>
<rect x="733.7" y="65" class="st1" width="88" height="2"/>
<rect x="733.7" y="87" class="st1" width="88" height="2"/>
<path class="st4" d="M821.4,664.2c5.4,19.9,23.9,32.3,23.9,32.3s9.7-20,4.3-39.9s-23.9-32.3-23.9-32.3S816,644.2,821.4,664.2z"/>
<path class="st1" d="M829.3,659.9c14.8,14.4,16.6,36.5,16.6,36.5s-22.2-1.2-37-15.6s-16.6-36.5-16.6-36.5S814.5,645.5,829.3,659.9z"
	/>
<rect x="191.7" y="558" class="st0" width="103" height="120"/>
<path class="st5" d="M334.7,678h-144V534h144V678z M192.7,676h140V536h-140V676z"/>
<rect x="218.7" y="577" class="st2" width="88" height="2"/>
<rect x="218.7" y="599" class="st2" width="88" height="2"/>
<rect x="218.7" y="621" class="st2" width="88" height="2"/>
<path class="st6" d="M226.5,217.2L226.5,217.2c-24,0-43.5,21.6-43.5,48.3v33.9h10.4l6-12.6l-1.5,12.6h67l5.5-11.4l-1.4,11.4h7.5
	v-26.6C276.6,242.1,254.2,217.2,226.5,217.2z"/>
<path class="st6" d="M176.7,438.6L150,449.9l-92.8,75.5c-3.4,4.2-5.5,9.3-6,14.7c-0.7,8.7-28.7,54.1-18.7,60.1s46.1,24,48.1,12
	s12.7-63.5,12.7-63.5l89.5-80.2L176.7,438.6z"/>
<path class="st6" d="M71.8,602.2l-11.4,33.4c0,0,12,12.7,6,23.4v36.7h-9.4l-2.7-19.4c0,0-10.7,19.1-16,19.4
	c-11.3,0.5-33.6,4.5-34.3-1.5s16.9-11.9,16.9-11.9l18.7-51.4l8-31.4L71.8,602.2z"/>
<path class="st6" d="M246.1,429.9c0,0,6,58.8-11.4,69.5s-94.2,44.8-94.2,44.8s32.7,30.7,26,38.1s-36.7,27.4-40.7,23.4
	s-48.8-52.1-43.4-67.5s79.5-65.5,79.5-65.5l8.7-31.4l2.7-25.4l28.1-18L246.1,429.9z"/>
<circle class="st7" cx="215.5" cy="265.2" r="27.8"/>
<path class="st7" d="M237.1,276.6c0,0-1.3,25.4,19.4,33.4s-51.4,60.1-51.4,60.1V312c0,0,9.4-10,0-25.4L237.1,276.6z"/>
<path class="st7" d="M281.5,395.8l-5.3,26l-16,89.5c0,0,13.4,38.1-4.7,37.4s-9.4-41.4-9.4-41.4l9.4-74.1v-28.7L281.5,395.8z"/>
<path class="st7" d="M166.7,383.1l-6,23.4l-27.4,66.1c0,0-18.7,31.4-3.3,30.7s15.4-30.7,15.4-30.7l31.4-53.4v-30.1L166.7,383.1z"/>
<path class="st6" d="M162,578.2l22,20.7c0,0,15.4-3.3,21.4,14.7s10,29.4,10,29.4l-8,4.7l-10-14c0,0-6,25.4-12,27.4
	s-36.1,15.4-33.4,0l14.7-21.4c0,0,2-24-4-26s-22-22-22-22L162,578.2z"/>
<path class="st1" d="M247.2,450.6c0,0-62.8-22.7-66.8-20.7c-3,1.3-6.2,2.1-9.4,2.4l0.1-9.1c0,0,20.7-7.3,32.1-2.7
	s46.1,25.4,46.1,25.4L247.2,450.6z"/>
<path class="st8" d="M209.1,356.8c0,0,18-20.7,23.4-33.4c3.4-7.7,9.6-13.8,17.3-17c0,0,40.1,9,39.4,25.1s-25.4,40.7-25.4,40.7
	s3.3,88.8-14.7,87.5c-3.9-4.6-6.6-10.1-8-16c-2-9.4-64.1-19.4-64.1-19.4s-5.3,9.4-6,5.3s5.3-102.2,5.3-102.2l31.9-21.1L209.1,356.8z
	"/>
<path class="st8" d="M284.1,324.9l0.4,0.3c2.9,1.6,4.7,4.7,4.7,8l0,49.6c0,2.7,1.2,5.3,3.3,7.1c2.6,2.2,5,5.3,0,7
	c-8,2.7-39.4,16-40.1,11.4s-2-10,0-10c1.6,0,10.9-47.9,18.4-68.4c1.7-4.8,7-7.2,11.8-5.5C283.2,324.5,283.6,324.7,284.1,324.9z"/>
<path class="st8" d="M185.4,325l-9.4,2.7l-10.7,46.1c0,0-12.7,2.7-8.7,7.3s20.7,16.7,20.7,16.7L185.4,325z"/>
<path class="st6" d="M238.9,230.5c-4.2-5.7-10.9-9.1-18-9.2H220c-16.5,0-29.8,14.9-29.8,33.3v0h5.5l0.9-6.8l1.3,6.8h32.7l2.7-5.7
	l-0.7,5.7h6.4c3,14.9-1.3,29.8-13,44.8h11l5.5-11.5l-1.4,11.5h20.9l4.1-26.4C266.3,253.2,254.8,236.4,238.9,230.5z"/>
<rect x="311.1" y="430.3" class="st3" width="104" height="33.9"/>
<rect x="317.1" y="401.2" class="st2" width="94" height="58"/>
</svg>
